#N canvas 275 63 1392 805 10;
#X declare -path seq3;
#X obj 215 298 throw~ outL;
#X obj 301 298 throw~ outR;
#X obj 694 520 s addsyn-1-filterPole;
#X obj 481 504 s addsyn-1-filterRez;
#X obj 286 491 s addsyn-1-freqset;
#X obj 286 432 r knob2;
#X obj 481 446 r knob3;
#X obj 694 448 r knob4;
#X obj 282 528 r addsyn-1-freqset-label;
#X obj 282 754 s screenLine2;
#X obj 481 745 s screenLine3;
#X obj 481 533 r addsyn-1-filterRez-label;
#X obj 691 758 s screenLine4;
#X obj 691 546 r addsyn-1-filterPole-label;
#X obj 60 436 r knob1;
#X obj 58 746 s screenLine1;
#X obj 51 538 r addsyn-1-tune-label;
#X obj 60 492 s addsyn-1-tune;
#X obj 215 219 AddSynth 1;
#X obj 58 719 list prepend 1:;
#X obj 691 738 list prepend 4:;
#X obj 481 725 list prepend 3:;
#X obj 282 725 list prepend 2:;
#X obj 70 375 s led;
#X obj 70 353 r seq2-1-led;
#X text 308 197 The additive synth;
#X text 391 300 sound out;
#X obj 216 251 *~ 1;
#X obj 303 5 r notes;
#X obj 792 50 loadbang;
#X obj 792 97 cg-metro 1, f 11;
#X obj 734 488 r seq3-1-k4;
#X obj 501 468 r seq3-1-k3;
#X obj 335 458 r seq3-1-k2;
#X obj 99 460 r seq3-1-k1;
#X text 311 156 2nd argument set to 1 tells seq to round length to
nearest beat from clock.;
#X text 886 96 metro;
#X text 882 49 if no incoming clock from link or midi run the internal
metro at 120 bpm;
#X obj 1189 341 s midiInGate;
#X obj 1197 284 tgl 15 0 empty empty empty 17 7 0 10 -262144 -1 -1
0 1;
#X obj 577 262 declare -path seq3;
#X obj 1245 256 loadbang;
#X msg 1245 278 0;
#X msg 792 72 120;
#X obj 792 234 cg-print-line5, f 16;
#X obj 901 132 r seq3-1-actions;
#X obj 320 250 noteout, f 10;
#X obj 387 224 r midiCh;
#X obj 320 225 unpack;
#X obj 215 176 t a a;
#X obj 215 154 cg-seq3 1 1;
#X obj 215 2 r aux;
#X obj 215 34 cg-shortcut 1;
#N canvas 8 50 875 541 seq-control 0;
#X obj 139 238 outlet;
#X obj 67 100 r cgSc-1-rec;
#X obj 187 99 r cgSc-1-play;
#X obj 67 132 t b;
#X msg 67 154 2;
#X obj 187 121 t b;
#X msg 187 143 1;
#X obj 300 126 t b;
#X obj 300 104 r cgSc-1-latch;
#X msg 300 148 3;
#X obj 508 38 r cgSc-1-aux;
#X obj 508 60 sel 1;
#X msg 501 193 1;
#X obj 598 70 r seq3-1-actions;
#X obj 598 94 sel 3;
#X msg 598 116 1;
#X obj 501 144 spigot 0;
#X obj 501 166 t b b;
#X msg 603 162 0;
#X text 437 5 when aux is pressed after recording starts immediatley
end the rec and play the loop;
#X connect 1 0 3 0;
#X connect 2 0 5 0;
#X connect 3 0 4 0;
#X connect 4 0 0 0;
#X connect 5 0 6 0;
#X connect 6 0 0 0;
#X connect 7 0 9 0;
#X connect 8 0 7 0;
#X connect 9 0 0 0;
#X connect 10 0 11 0;
#X connect 11 0 16 0;
#X connect 12 0 0 0;
#X connect 13 0 14 0;
#X connect 14 0 15 0;
#X connect 15 0 16 1;
#X connect 16 0 17 0;
#X connect 17 0 12 0;
#X connect 17 1 18 0;
#X connect 18 0 16 1;
#X restore 289 110 pd seq-control;
#X obj 58 626 list;
#X msg 58 603 69;
#X obj 58 583 t b a;
#X obj 58 648 route 69;
#X obj 303 60 s \$0-muter;
#X obj 153 582 r \$0-muter;
#X msg 153 633 0;
#X obj 185 633 t b b;
#X msg 191 663 1;
#X obj 153 605 sel 1;
#X obj 282 626 list;
#X msg 282 603 69;
#X obj 282 583 t b a;
#X obj 282 648 route 69;
#X obj 377 582 r \$0-muter;
#X msg 377 633 0;
#X obj 409 633 t b b;
#X msg 415 663 1;
#X obj 377 605 sel 1;
#X obj 481 626 list;
#X msg 481 603 69;
#X obj 481 583 t b a;
#X obj 481 648 route 69;
#X obj 576 582 r \$0-muter;
#X msg 576 633 0;
#X obj 608 633 t b b;
#X msg 614 663 1;
#X obj 576 605 sel 1;
#X obj 691 626 list;
#X msg 691 603 69;
#X obj 691 583 t b a;
#X obj 691 648 route 69;
#X obj 786 582 r \$0-muter;
#X msg 786 633 0;
#X obj 818 633 t b b;
#X msg 824 663 1;
#X obj 786 605 sel 1;
#X obj 934 224 f;
#X obj 934 246 spigot 0, f 14;
#X obj 1029 98 r \$0-muter;
#X msg 1029 149 0;
#X obj 1061 149 t b b;
#X msg 1067 179 1;
#X obj 1029 121 sel 1;
#X obj 946 173 del 1;
#X obj 58 670 spigot 1, f 14;
#X obj 282 670 spigot 1, f 14;
#X obj 481 670 spigot 1, f 14;
#X obj 692 670 spigot 1, f 14;
#X floatatom 229 603 5 0 0 0 - - -, f 5;
#X connect 5 0 4 0;
#X connect 6 0 3 0;
#X connect 7 0 2 0;
#X connect 8 0 66 0;
#X connect 11 0 75 0;
#X connect 13 0 84 0;
#X connect 14 0 17 0;
#X connect 16 0 56 0;
#X connect 18 0 27 0;
#X connect 19 0 15 0;
#X connect 20 0 12 0;
#X connect 21 0 10 0;
#X connect 22 0 9 0;
#X connect 24 0 23 0;
#X connect 27 0 0 0;
#X connect 27 0 1 0;
#X connect 28 0 52 1;
#X connect 29 0 43 0;
#X connect 30 0 44 0;
#X connect 30 1 44 1;
#X connect 30 2 44 2;
#X connect 31 0 2 0;
#X connect 32 0 3 0;
#X connect 33 0 4 0;
#X connect 34 0 17 0;
#X connect 39 0 38 0;
#X connect 41 0 42 0;
#X connect 42 0 38 0;
#X connect 43 0 30 0;
#X connect 45 0 91 0;
#X connect 47 0 46 2;
#X connect 48 0 46 0;
#X connect 48 1 46 1;
#X connect 49 0 18 0;
#X connect 49 1 48 0;
#X connect 50 0 49 0;
#X connect 51 0 52 0;
#X connect 52 0 50 0;
#X connect 52 1 58 0;
#X connect 53 0 50 1;
#X connect 54 0 57 0;
#X connect 55 0 54 0;
#X connect 56 0 55 0;
#X connect 56 1 54 1;
#X connect 57 0 99 0;
#X connect 59 0 63 0;
#X connect 59 0 103 0;
#X connect 60 0 99 1;
#X connect 61 0 55 0;
#X connect 61 1 62 0;
#X connect 62 0 99 1;
#X connect 63 0 60 0;
#X connect 63 1 61 0;
#X connect 64 0 67 0;
#X connect 65 0 64 0;
#X connect 66 0 65 0;
#X connect 66 1 64 1;
#X connect 67 0 100 0;
#X connect 68 0 72 0;
#X connect 69 0 100 1;
#X connect 70 0 65 0;
#X connect 70 1 71 0;
#X connect 71 0 100 1;
#X connect 72 0 69 0;
#X connect 72 1 70 0;
#X connect 73 0 76 0;
#X connect 74 0 73 0;
#X connect 75 0 74 0;
#X connect 75 1 73 1;
#X connect 76 0 101 0;
#X connect 77 0 81 0;
#X connect 78 0 101 1;
#X connect 79 0 74 0;
#X connect 79 1 80 0;
#X connect 80 0 101 1;
#X connect 81 0 78 0;
#X connect 81 1 79 0;
#X connect 82 0 85 0;
#X connect 83 0 82 0;
#X connect 84 0 83 0;
#X connect 84 1 82 1;
#X connect 85 0 102 0;
#X connect 86 0 90 0;
#X connect 87 0 102 1;
#X connect 88 0 83 0;
#X connect 88 1 89 0;
#X connect 89 0 102 1;
#X connect 90 0 87 0;
#X connect 90 1 88 0;
#X connect 91 0 92 0;
#X connect 92 0 44 3;
#X connect 93 0 97 0;
#X connect 94 0 92 1;
#X connect 95 0 98 0;
#X connect 95 1 96 0;
#X connect 96 0 92 1;
#X connect 97 0 94 0;
#X connect 97 1 95 0;
#X connect 98 0 30 1;
#X connect 98 0 91 0;
#X connect 99 0 19 0;
#X connect 100 0 22 0;
#X connect 101 0 21 0;
#X connect 102 0 20 0;
