#N canvas 524 50 1392 805 10;
#X declare -path seq3;
#X obj 211 298 throw~ outL;
#X obj 297 298 throw~ outR;
#X obj 694 520 s addsyn-1-filterPole;
#X obj 481 504 s addsyn-1-filterRez;
#X obj 286 491 s addsyn-1-freqset;
#X obj 286 462 r knob2;
#X obj 481 476 r knob3;
#X obj 694 498 r knob4;
#X obj 282 528 r addsyn-1-freqset-label;
#X obj 282 584 s screenLine2;
#X obj 481 575 s screenLine3;
#X obj 481 533 r addsyn-1-filterRez-label;
#X obj 691 588 s screenLine4;
#X obj 691 546 r addsyn-1-filterPole-label;
#X obj 60 436 r knob1;
#X obj 60 577 s screenLine1;
#X obj 60 525 r addsyn-1-tune-label;
#X obj 60 492 s addsyn-1-tune;
#X obj 211 199 AddSynth 1;
#X obj 60 547 list prepend 1:;
#X obj 692 568 list prepend 4:;
#X obj 481 555 list prepend 3:;
#X obj 282 555 list prepend 2:;
#X obj 70 375 s led;
#X obj 70 353 r seq2-1-led;
#X obj 184 357 r seq2-1-aux-label;
#X obj 184 382 s screenLine5;
#X text 304 197 The additive synth;
#X text 387 300 sound out;
#X obj 212 251 *~ 1;
#X obj 211 83 r notes;
#X obj 285 112 r aux;
#X obj 450 74 loadbang;
#X obj 450 121 cg-metro 1;
#X obj 666 436 r seq3-1-k4;
#X obj 496 431 r seq3-1-k3;
#X obj 335 428 r seq3-1-k2;
#X obj 159 440 r seq3-1-k1;
#X obj 332 112 r fs;
#X text 311 156 2nd argument set to 1 tells seq to round length to
nearest beat from clock.;
#X text 544 120 metro;
#X text 540 73 if no incoming clock from link or midi run the internal
metro at 120 bpm;
#X obj 211 155 cg-seq3 1 1;
#X obj 960 288 s midiInGate;
#X obj 970 251 tgl 15 0 empty empty empty 17 7 0 10 -262144 -1 -1 0
1;
#X obj 577 262 declare -path seq3;
#X msg 450 96 60;
#X connect 5 0 4 0;
#X connect 6 0 3 0;
#X connect 7 0 2 0;
#X connect 8 0 22 0;
#X connect 11 0 21 0;
#X connect 13 0 20 0;
#X connect 14 0 17 0;
#X connect 16 0 19 0;
#X connect 18 0 29 0;
#X connect 19 0 15 0;
#X connect 20 0 12 0;
#X connect 21 0 10 0;
#X connect 22 0 9 0;
#X connect 24 0 23 0;
#X connect 25 0 26 0;
#X connect 29 0 0 0;
#X connect 29 0 1 0;
#X connect 30 0 42 0;
#X connect 31 0 42 1;
#X connect 32 0 46 0;
#X connect 34 0 2 0;
#X connect 35 0 3 0;
#X connect 36 0 4 0;
#X connect 37 0 17 0;
#X connect 38 0 42 1;
#X connect 42 0 18 0;
#X connect 44 0 43 0;
#X connect 46 0 33 0;
