#N canvas 11 50 1114 657 10;
#X obj 418 364 > 0.1;
#X obj 365 364 < 0.1;
#X obj 365 330 t f f, f 8;
#X obj 365 396 +, f 8;
#X obj 365 418 sel 0, f 16;
#X obj 397 265 t f f, f 9;
#X obj 326 51 inlet target;
#X obj 121 52 inlet incoming number;
#X obj 397 296 - \$1;
#X obj 457 296 + \$1;
#X obj 600 97 inlet within range;
#X obj 365 440 t b;
#X msg 365 462 1;
#X obj 474 442 t b;
#X msg 474 464 0;
#X obj 365 544 outlet;
#X text 705 181 arg1: up and down range for rounding;
#X text 642 281 sends out a 1 if incoming number is within the range
set of target number;
#X connect 0 0 3 1;
#X connect 1 0 3 0;
#X connect 2 0 1 0;
#X connect 2 1 0 0;
#X connect 3 0 4 0;
#X connect 4 0 11 0;
#X connect 4 1 13 0;
#X connect 5 0 8 0;
#X connect 5 1 9 0;
#X connect 6 0 5 0;
#X connect 7 0 2 0;
#X connect 8 0 1 1;
#X connect 9 0 0 1;
#X connect 10 0 8 1;
#X connect 10 0 9 1;
#X connect 11 0 12 0;
#X connect 12 0 15 0;
#X connect 13 0 14 0;
#X connect 14 0 15 0;
