#N canvas 717 260 1074 675 10;
#X msg 44 116 write poop.txt;
#X msg 114 147 read poop.txt;
#X obj 186 387 text get pooper;
#X obj 44 221 text define pooper;
#X obj 282 236 text set pooper;
#X obj 299 55 t f b;
#X msg 299 27 10;
#X obj 282 110 f;
#X obj 318 110 + 1;
#X msg 323 80 0;
#X obj 279 81 until;
#X obj 282 132 t f f;
#X obj 269 172 list prepend note;
#X obj 270 195 list append 100 45;
#X obj 184 342 f;
#X obj 228 346 + 1;
#X msg 202 290 0;
#X obj 149 308 bng 15 250 50 0 empty empty empty 17 7 0 10 -262144
-1 -1;
#X obj 186 409 list split 1;
#X obj 228 434 list split 1;
#X obj 120 441 f;
#X obj 121 418 bng 15 250 50 0 empty empty empty 17 7 0 10 -262144
-1 -1;
#X obj 159 640 print itsaMatch;
#X obj 124 609 pack 0 0;
#X msg 164 182 clear;
#X obj 108 286 t b b;
#X obj 88 260 bng 15 250 50 0 empty empty empty 17 7 0 10 -262144 -1
-1;
#X floatatom 320 518 5 0 0 0 - - -, f 5;
#X obj 137 526 ==, f 11;
#X obj 137 548 sel 1;
#X obj 228 460 route bang;
#X msg 183 499 0;
#X obj 644 233 metro 5;
#X obj 644 206 tgl 15 0 empty empty empty 17 7 0 10 -262144 -1 -1 0
1;
#X obj 644 288 f;
#X obj 679 287 + 1;
#X msg 659 259 0;
#X obj 644 310 % 96;
#X obj 676 419 f;
#X obj 711 418 + 1;
#X msg 761 358 0;
#X obj 649 478 +;
#X obj 676 451 * 100;
#X obj 649 500 * 0.01;
#X floatatom 649 522 5 0 0 0 - - -, f 5;
#X obj 739 287 t b b;
#X obj 744 258 bng 15 250 50 0 empty empty empty 17 7 0 10 -262144
-1 -1;
#X obj 899 492 sel 8;
#X obj 590 559 print;
#X obj 676 395 sel 95;
#X connect 0 0 3 0;
#X connect 1 0 3 0;
#X connect 2 0 18 0;
#X connect 5 0 10 0;
#X connect 5 1 9 0;
#X connect 6 0 5 0;
#X connect 7 0 8 0;
#X connect 7 0 11 0;
#X connect 8 0 7 1;
#X connect 9 0 7 1;
#X connect 10 0 7 0;
#X connect 11 0 12 0;
#X connect 11 1 4 1;
#X connect 12 0 13 0;
#X connect 13 0 4 0;
#X connect 14 0 15 0;
#X connect 14 0 2 0;
#X connect 14 0 20 1;
#X connect 15 0 14 1;
#X connect 16 0 14 1;
#X connect 17 0 14 0;
#X connect 18 1 19 0;
#X connect 19 0 30 0;
#X connect 20 0 28 0;
#X connect 21 0 20 0;
#X connect 23 0 22 0;
#X connect 24 0 3 0;
#X connect 25 0 21 0;
#X connect 25 1 17 0;
#X connect 26 0 25 0;
#X connect 28 0 29 0;
#X connect 29 0 23 0;
#X connect 30 0 31 0;
#X connect 30 1 28 1;
#X connect 30 1 27 0;
#X connect 30 1 23 1;
#X connect 31 0 28 1;
#X connect 32 0 34 0;
#X connect 33 0 32 0;
#X connect 34 0 35 0;
#X connect 34 0 37 0;
#X connect 35 0 34 1;
#X connect 36 0 34 1;
#X connect 37 0 41 0;
#X connect 37 0 49 0;
#X connect 38 0 39 0;
#X connect 38 0 42 0;
#X connect 39 0 38 1;
#X connect 40 0 38 0;
#X connect 41 0 43 0;
#X connect 42 0 41 1;
#X connect 43 0 44 0;
#X connect 43 0 47 0;
#X connect 43 0 48 0;
#X connect 45 0 36 0;
#X connect 45 1 40 0;
#X connect 46 0 45 0;
#X connect 47 0 46 0;
#X connect 49 0 38 0;
